<?xml version="1.0" standalone="no"?><!DOCTYPE svg PUBLIC "-//W3C//DTD SVG 1.1//EN" "http://www.w3.org/Graphics/SVG/1.1/DTD/svg11.dtd"><svg t="1742978665823" class="icon" viewBox="0 0 1024 1024" version="1.1" xmlns="http://www.w3.org/2000/svg" p-id="13685" width="256" height="256" xmlns:xlink="http://www.w3.org/1999/xlink"><path d="M832 64 192 64C121.6 64 64 121.6 64 192l0 640c0 70.4 57.6 128 128 128l640 0c70.4 0 128-57.6 128-128L960 192C960 121.6 902.4 64 832 64zM762.24 566.4l-224 220.16c-6.4 6.4-15.36 9.6-24.32 8.96-8.96 0.64-17.28-2.56-24.32-8.96l-224-220.16c-12.8-12.8-12.8-32.64 0-45.44 12.8-12.8 33.28-12.8 45.44 0l202.24 199.04 202.24-199.04c12.8-12.8 33.28-12.8 45.44 0C775.04 533.76 775.04 553.6 762.24 566.4zM762.24 310.4l-224 220.16c-6.4 6.4-15.36 9.6-24.32 8.96C505.6 540.16 496.64 536.96 489.6 530.56l-224-220.16c-12.8-12.8-12.8-32.64 0-45.44 12.8-12.8 33.28-12.8 45.44 0l202.24 199.04 202.24-199.04c12.8-12.8 33.28-12.8 45.44 0C775.04 277.76 775.04 297.6 762.24 310.4z" p-id="13686" fill="#3458e3"></path></svg>